# xmcd
#
# Track frame offsets:
# 150
# 16125
# 30140
# 46632
# 66115
# 77852
# 90972
# 105207
# 117662
# 131050
#
# Disc length: 1947 seconds
#
#
# Revision: 0
# Processed by: cddbd v1.4PL0 Copyright (c) Steve Scherf et al.
# Submitted via: FreeRIP 2.51 
#
DISCID=6907990a
DTITLE=Willy DeVille - Victory Mixture
DYEAR=1990
DGENRE=Blues
TTITLE0=Hello My Lover
TTITLE1=It Do Me Good
TTITLE2=Key to My Heart
TTITLE3=Beating Like a Tom-Tom
TTITLE4=Every Dog Has Its Day
TTITLE5=Big Blue Diamonds
TTITLE6=Teasin' You
TTITLE7=Ruler of My Heart
TTITLE8=Who Shot the La-La
TTITLE9=Junkers Blues
EXTD=
EXTT0=
EXTT1=
EXTT2=
EXTT3=
EXTT4=
EXTT5=
EXTT6=
EXTT7=
EXTT8=
EXTT9=
PLAYORDER=
